<?xml version="1.0" encoding="UTF-8"?>
<svg width="12px" height="12px" viewBox="0 0 12 12" version="1.1" xmlns="http://www.w3.org/2000/svg" xmlns:xlink="http://www.w3.org/1999/xlink">
    <title>关  闭</title>
    <g id="页面-1" stroke="none" stroke-width="1" fill="none" fill-rule="evenodd">
        <g id="弹窗1" transform="translate(-1184.000000, -302.000000)" fill-rule="nonzero">
            <g id="编组" transform="translate(708.000000, 286.000000)">
                <g id="关--闭" transform="translate(476.000000, 16.000000)">
                    <rect id="矩形" fill="#000000" opacity="0" x="0" y="0" width="12" height="12"></rect>
                    <path d="M6.834,6.138 L11.232,1.74 C11.454,1.518 11.454,1.152 11.232,0.93 L11.208,0.906 C10.986,0.684 10.62,0.684 10.398,0.906 L6,5.31 L1.602,0.906 C1.38,0.684 1.014,0.684 0.792,0.906 L0.768,0.93 C0.54,1.152 0.54,1.518 0.768,1.74 L5.166,6.138 L0.768,10.536 C0.546,10.758 0.546,11.124 0.768,11.346 L0.792,11.37 C1.014,11.592 1.38,11.592 1.602,11.37 L6,6.972 L10.398,11.37 C10.62,11.592 10.986,11.592 11.208,11.37 L11.232,11.346 C11.454,11.124 11.454,10.758 11.232,10.536 L6.834,6.138 Z" id="路径" fill="#7C7C7C"></path>
                </g>
            </g>
        </g>
    </g>
</svg>