<svg id="Layer_1" data-name="Layer 1" xmlns="http://www.w3.org/2000/svg" viewBox="0 0 414.13 93.81"><defs><style>.cls-1{fill:#fff;}</style></defs><path class="cls-1" d="M68.07,98.65l-11-18.28a1.84,1.84,0,0,1-.35-1.11V45.36H52.61v35c.35.35,7.25,12.12,7.25,12.12H42.74S49.64,80.69,50,80.34v-35H45.84v33.9a1.87,1.87,0,0,1-.34,1.11l-11,18.28Z" transform="translate(-21.04 -4.84)"/><path class="cls-1" d="M64.67,21.64s2.06-8.55-5.31-14.15c0,0-2.94-2.65-8.54-2.65a12.57,12.57,0,0,0-8,2.65c-6.78,4.71-5,14.15-5,14.15Z" transform="translate(-21.04 -4.84)"/><path class="cls-1" d="M38.68,24H63.89a12.14,12.14,0,0,0,.51-1.47H38.17A12.14,12.14,0,0,0,38.68,24Z" transform="translate(-21.04 -4.84)"/><path class="cls-1" d="M63.49,24.88H39.08a13.3,13.3,0,0,0,.84,1.47H62.65A13.3,13.3,0,0,0,63.49,24.88Z" transform="translate(-21.04 -4.84)"/><path class="cls-1" d="M41.57,28.41H61a14.24,14.24,0,0,0,1-1.17H40.55A14.24,14.24,0,0,0,41.57,28.41Z" transform="translate(-21.04 -4.84)"/><path class="cls-1" d="M43.67,30.18H58.9a14,14,0,0,0,1.15-.88H42.52A14,14,0,0,0,43.67,30.18Z" transform="translate(-21.04 -4.84)"/><path class="cls-1" d="M45.78,31.36a13.43,13.43,0,0,0,11,0Z" transform="translate(-21.04 -4.84)"/><path class="cls-1" d="M77.43,33.2H56.8a6.87,6.87,0,0,0-3.44,1A7.68,7.68,0,0,0,51.3,37h0a7.68,7.68,0,0,0-2.06-2.77,6.87,6.87,0,0,0-3.44-1H25.16L21,39.8h18.9a6.7,6.7,0,0,1,.9.06A6.23,6.23,0,0,1,43.39,41a12.48,12.48,0,0,1,2.14,1.87c.17.17.61.77.61.77H56.46s.44-.6.61-.77A12.48,12.48,0,0,1,59.21,41a6.12,6.12,0,0,1,2.55-1.12,6.7,6.7,0,0,1,.9-.06h18.9Z" transform="translate(-21.04 -4.84)"/><path class="cls-1" d="M23.11,41.8V73.18a8.7,8.7,0,0,0,.05.93,20.41,20.41,0,0,0,3.3,9A30.65,30.65,0,0,0,35,91.68l2.59-4.13a19.31,19.31,0,0,1-6.32-6.17,22.91,22.91,0,0,1-1.52-2.46,16.07,16.07,0,0,1-.85-2c-.16-.48-.29-.91-.39-1.31A8.72,8.72,0,0,1,28.26,74c0-.19,0-1,0-1V41.8Z" transform="translate(-21.04 -4.84)"/><path class="cls-1" d="M31,41.8V73.07s0,.12,0,.26,0,.38.05.56,0,.25.05.33a11.85,11.85,0,0,0,.43,1.56,18.47,18.47,0,0,0,1.88,3.78A16,16,0,0,0,39.06,85l2.59-4a9.84,9.84,0,0,1-1.9-1.48,16.11,16.11,0,0,1-2.22-2.58,12,12,0,0,1-1.35-3,5.84,5.84,0,0,1-.24-1.57c0-.28,0-.44,0-.44V41.8Z" transform="translate(-21.04 -4.84)"/><path class="cls-1" d="M79.49,41.8V73.18c0,.34,0,.65,0,.93a20.31,20.31,0,0,1-3.31,9,30.54,30.54,0,0,1-8.52,8.59L65,87.55a19.31,19.31,0,0,0,6.32-6.17,22.91,22.91,0,0,0,1.52-2.46,17.71,17.71,0,0,0,.85-2c.16-.48.29-.91.39-1.31A8.72,8.72,0,0,0,74.34,74c0-.19,0-1,0-1V41.8Z" transform="translate(-21.04 -4.84)"/><path class="cls-1" d="M71.63,41.8V73.07l0,.26c0,.16,0,.38,0,.56s0,.25-.06.33a11.64,11.64,0,0,1-.42,1.56,18.47,18.47,0,0,1-1.88,3.78A16,16,0,0,1,63.54,85L61,81a9.84,9.84,0,0,0,1.9-1.48,15.61,15.61,0,0,0,2.21-2.58,11.72,11.72,0,0,0,1.36-3,5.84,5.84,0,0,0,.24-1.57c0-.28,0-.44,0-.44V41.8Z" transform="translate(-21.04 -4.84)"/><path class="cls-1" d="M123.48,58.65V43.11h5.33V81.63h-5.33V63.15H103.3V81.63H98.08V43.11h5.22V58.65Z" transform="translate(-21.04 -4.84)"/><path class="cls-1" d="M171.15,43.11h6.92l-19,17.33,19.36,21.15h-7.16l-16-17.91-2.13,1.84V81.63h-5.23V43.11h5.23v16.7Z" transform="translate(-21.04 -4.84)"/><path class="cls-1" d="M197.67,43.11V65.86c0,6.24,2.08,12.1,10.21,12.1s10.21-5.81,10.21-12.1V43.11h5.32V67.46c0,8.46-5.81,15-15.53,15s-15.54-6.49-15.54-15V43.11Z" transform="translate(-21.04 -4.84)"/><path class="cls-1" d="M261,50.42a7.33,7.33,0,0,0-6.82-3.63c-3.34,0-7.11,2.08-7.11,5.47,0,3,3.24,4.6,5.9,5.52l3,1.06c6,2.13,10.5,5.13,10.5,11.62,0,7-6,12-13.5,12-6.87,0-12.2-4.6-13.07-10.79l5.37-1c0,4.26,3.63,7.31,8.23,7.31a7.59,7.59,0,0,0,7.84-7.5c0-4.12-3.63-5.91-7.31-7.31L251.14,62c-4.79-1.89-9.19-4.41-9.19-9.78,0-6.19,6.09-9.92,12.43-9.92a12.28,12.28,0,0,1,10.89,5.81Z" transform="translate(-21.04 -4.84)"/><path class="cls-1" d="M295.27,81.63h-5.22V47.52H280V43.11h25.41v4.41H295.32V81.63Z" transform="translate(-21.04 -4.84)"/><path class="cls-1" d="M333.62,40.87l5,1.92a62,62,0,0,0-3.68,11.59,56.35,56.35,0,0,0-.79,5.66q-.27,3-.27,6.48c0,2.36.09,4.52.27,6.5a55.94,55.94,0,0,0,.79,5.66,59.9,59.9,0,0,0,3.68,11.57l-5,1.92q-5.24-11-5.24-25.65T333.62,40.87Z" transform="translate(-21.04 -4.84)"/><path class="cls-1" d="M368,62.55h15.33v1.23a25.17,25.17,0,0,1-1,7.4,15.6,15.6,0,0,1-3.25,5.58,16.79,16.79,0,0,1-13.15,5.82A18.09,18.09,0,0,1,352.57,77,18.63,18.63,0,0,1,347,63.4,19.29,19.29,0,0,1,366.42,44a18.86,18.86,0,0,1,8.12,1.78,23.53,23.53,0,0,1,7.1,5.77l-4,3.82q-4.57-6.07-11.13-6.08a13.29,13.29,0,0,0-9.88,4.07,13.56,13.56,0,0,0-4,10,13.94,13.94,0,0,0,13.46,13.94,11.17,11.17,0,0,0,7.42-2.79,9.89,9.89,0,0,0,3.68-6.73H368Z" transform="translate(-21.04 -4.84)"/><path class="cls-1" d="M399.22,76.62H417v5.26H390L408.23,50H393V44.77h24.45Z" transform="translate(-21.04 -4.84)"/><path class="cls-1" d="M429.93,92.17l-5-1.92a59.81,59.81,0,0,0,3.67-11.57,60.4,60.4,0,0,0,1.09-12.16,60.54,60.54,0,0,0-1.09-12.14,61.89,61.89,0,0,0-3.67-11.59l5-1.92q5.24,11,5.24,25.65T429.93,92.17Z" transform="translate(-21.04 -4.84)"/></svg>