<?xml version="1.0" encoding="utf-8"?>
<!-- Generator: Adobe Illustrator 16.0.0, SVG Export Plug-In . SVG Version: 6.00 Build 0)  -->
<!DOCTYPE svg PUBLIC "-//W3C//DTD SVG 1.1//EN" "http://www.w3.org/Graphics/SVG/1.1/DTD/svg11.dtd">
<svg version="1.1" id="Layer_1" xmlns="http://www.w3.org/2000/svg" xmlns:xlink="http://www.w3.org/1999/xlink" x="0px" y="0px"
	 width="1618px" height="324px" viewBox="468.5 118.5 1618 324" enable-background="new 468.5 118.5 1618 324" xml:space="preserve"
	>
<path fill="#996600" d="M633.694,438.777l-36.895-61.93c0,0-1.317-1.317-1.317-3.953v-1.317v-3.294V258.259h-13.835v115.294v3.294
	c1.317,1.317,24.376,40.847,24.376,40.847h-57.977c0,0,23.059-40.188,24.377-40.847v-3.294V258.259h-13.836v110.023v3.294v1.317
	c0,2.636-1.317,3.953-1.317,3.953l-36.894,61.93H633.694z"/>
<path fill="#996600" d="M621.835,177.882c0,0,7.247-28.988-17.788-48.094c0,0-9.882-9.224-28.988-9.224
	c-17.129,0-27.012,9.224-27.012,9.224c-23.059,15.812-17.129,48.094-17.129,48.094H621.835z"/>
<path fill="#996600" d="M534.212,185.788h85.647c0.658-1.317,1.317-3.294,1.976-5.271h-89.6
	C532.895,182.494,533.553,183.812,534.212,185.788"/>
<path fill="#996600" d="M617.883,188.423h-82.354c0.659,1.977,1.977,3.295,2.636,5.271h77.082
	C616.564,191.718,617.224,190.4,617.883,188.423"/>
<path fill="#996600" d="M544.094,200.282h65.883c1.317-1.317,2.635-2.636,3.294-3.953H540.8
	C541.459,198.306,542.776,199.623,544.094,200.282"/>
<path fill="#996600" d="M550.683,206.87h51.388c1.318-0.658,2.636-1.977,3.953-3.294h-59.294
	C548.047,204.894,549.365,205.553,550.683,206.87"/>
<path fill="#996600" d="M557.93,210.823c5.93,2.636,11.858,3.953,18.447,3.953c6.588,0,13.176-1.317,18.446-3.953H557.93
	L557.93,210.823z"/>
<path fill="#003366" d="M665.317,216.753h-69.835c0,0-6.588,0-11.859,3.294c-3.952,2.635-6.588,9.224-7.246,9.224l0,0
	c0,0-3.295-6.589-7.248-9.224c-5.27-3.294-11.858-3.294-11.858-3.294h-69.177l-13.835,22.399h63.906c0,0,1.977,0,3.294,0
	c1.977,0,5.271,1.318,8.564,3.953c4.612,3.294,5.93,5.271,7.247,6.589c0.659,0.658,1.977,2.635,1.977,2.635h15.812h1.977h5.271
	h11.859c0,0,1.317-1.977,1.977-2.635c1.317-1.318,2.635-2.636,7.247-6.589c3.294-2.635,6.588-3.294,8.564-3.953
	c1.317,0,3.294,0,3.294,0h63.906L665.317,216.753z"/>
<path fill="#003366" d="M481.506,245.741v104.752v1.318c0,1.317,0,1.977,0,3.294c1.317,11.2,4.611,19.765,11.2,30.306
	c10.541,17.13,28.988,28.988,28.988,28.988l8.564-13.835c0,0-11.858-6.589-21.741-21.083c-1.977-2.635-3.953-5.929-5.271-8.564
	c-1.317-2.635-1.977-4.611-2.636-6.588c-0.658-1.317-0.658-3.294-1.317-4.612c-0.658-1.977-0.658-3.294-0.658-5.271
	c0-0.658,0-3.294,0-3.294v-0.658V245.082h-17.13V245.741z"/>
<path fill="#003366" d="M507.859,245.741v106.07v0.658c0,0.659,0,1.318,0,1.977c0,0.659,0,0.659,0,1.318
	c0.658,1.317,0.658,3.294,1.317,5.271c1.317,3.294,3.294,7.905,6.588,12.518C523.671,386.071,534.871,392,534.871,392l8.564-13.836
	c0,0-2.636-1.317-6.589-5.271c-2.635-1.977-5.271-5.271-7.247-8.564c-2.635-3.294-3.952-7.247-4.611-9.883
	c-0.659-1.977-0.659-3.952-0.659-5.271c0-0.658,0-1.317,0-1.317V245.741H507.859z"/>
<path fill="#003366" d="M672.564,245.741v104.752v1.318c0,1.317,0,1.977,0,3.294c-1.317,11.2-4.611,19.765-11.199,30.306
	c-10.542,17.788-28.988,29.647-28.988,29.647l-8.565-13.836c0,0,11.859-6.588,21.741-21.082c1.977-2.635,3.953-5.93,5.271-8.564
	c1.318-2.636,1.977-4.612,2.636-6.589c0.658-1.317,0.658-3.294,1.317-4.611c0.659-1.977,0.659-3.294,0.659-5.271
	c0-0.659,0-3.294,0-3.294v-0.659V245.741H672.564L672.564,245.741z"/>
<path fill="#003366" d="M645.553,245.741v106.07v0.658c0,0.659,0,1.318,0,1.977c0,0.659,0,0.659,0,1.318
	c-0.658,1.317-0.658,3.294-1.317,5.271c-1.317,3.294-3.294,7.905-6.588,12.518C629.741,386.071,618.541,392,618.541,392
	l-8.564-13.836c0,0,2.635-1.317,6.588-5.271c2.636-1.977,5.271-5.271,7.247-8.564c2.636-3.294,3.953-7.247,4.612-9.883
	c0.658-1.977,0.658-3.952,0.658-5.271c0-0.658,0-1.317,0-1.317V245.741H645.553z"/>
<g>
	<path fill="#003366" d="M753.6,437.458h-9.223v-64.564h-17.13v-8.564h43.482v8.564H753.6V437.458z"/>
	<path fill="#003366" d="M779.294,364.329h38.871v8.564h-30.306v20.424h28.988v8.564h-28.988v27.671h30.306v8.564h-38.871V364.329z"
		/>
	<path fill="#003366" d="M883.389,378.164c-5.271-4.611-12.518-7.247-19.106-7.247c-16.471,0-28.988,13.836-28.988,29.647
		s12.518,29.646,28.329,29.646c7.248,0,13.836-2.635,19.106-7.247v10.542c-5.271,3.294-12.518,5.271-19.106,5.271
		c-20.423,0-38.211-16.471-38.211-37.554c0-21.741,17.129-38.211,38.87-38.211c6.589,0,12.518,1.317,18.447,4.611v10.541H883.389z"
		/>
	<path fill="#003366" d="M938.07,393.976v-28.988h9.224v72.471h-9.224v-34.917h-34.917v34.917h-8.565v-72.471h9.224v28.988H938.07
		L938.07,393.976z"/>
	<path fill="#003366" d="M960.471,361.035l54.683,57.317v-54.023h9.224v75.765l-54.683-57.317V436.8h-9.224V361.035z"/>
	<path fill="#003366" d="M1108.706,401.223c0,21.741-17.13,38.212-38.212,38.212s-38.212-16.471-38.212-38.212
		c0-21.082,17.13-37.553,38.212-37.553C1091.576,363.012,1108.706,380.141,1108.706,401.223z M1099.482,401.223
		c0-15.812-11.859-29.646-28.988-29.646s-28.988,13.177-28.988,29.646c0,16.471,13.177,29.647,28.988,29.647
		C1086.306,430.211,1099.482,417.694,1099.482,401.223z"/>
	<path fill="#003366" d="M1127.812,428.894h22.4v8.564h-31.624v-72.471h9.224V428.894z"/>
	<path fill="#003366" d="M1227.953,401.223c0,21.741-17.129,38.212-38.212,38.212c-21.082,0-38.212-16.471-38.212-38.212
		c0-21.082,17.13-37.553,38.212-37.553C1210.165,363.012,1227.953,380.141,1227.953,401.223z M1218.729,401.223
		c0-15.812-11.858-29.646-28.988-29.646s-28.988,13.177-28.988,29.646c0,16.471,13.177,29.647,28.988,29.647
		C1205.553,430.211,1218.729,417.694,1218.729,401.223z"/>
	<path fill="#003366" d="M1303.718,400.565v2.635c0,19.765-13.835,35.577-34.259,35.577s-36.895-17.789-36.895-37.554
		c0-21.082,16.471-38.211,37.553-38.211c11.201,0,22.4,5.271,29.647,13.835l-6.588,5.93c-5.271-7.247-13.835-11.859-23.06-11.859
		c-16.471,0-28.988,13.177-28.988,29.647c0,15.152,12.518,29.646,28.33,29.646c11.2,0,23.718-9.882,23.718-21.741h-19.106v-8.564
		h29.647V400.565z"/>
	<path fill="#003366" d="M1306.354,364.329h10.541l17.788,30.965l17.788-30.965h10.541l-23.718,40.847V436.8h-9.224v-31.624
		L1306.354,364.329z"/>
</g>
<g>
	<path fill="#003366" d="M747.671,206.212h-9.224v-64.565h-17.13v-8.564H764.8v8.564h-17.129V206.212z"/>
	<path fill="#003366" d="M816.188,162.73v-28.988h9.224v72.471h-9.224v-34.918h-34.918v34.918h-9.224v-72.471h9.224v28.988H816.188
		L816.188,162.73z"/>
	<path fill="#003366" d="M839.247,133.082h38.87v8.564h-30.306v20.424H876.8v8.564h-28.988v27.012h30.306v8.565h-38.87V133.082z"/>
	<path fill="#003366" d="M961.788,162.73v-28.988h9.224v72.471h-9.224v-34.918h-34.259v34.918h-9.224v-72.471h9.224v28.988H961.788
		L961.788,162.73z"/>
	<path fill="#003366" d="M1056,169.318c0,21.741-17.129,38.212-38.212,38.212c-21.082,0-38.212-16.471-38.212-38.212
		c0-21.082,17.13-37.553,38.212-37.553C1038.871,131.765,1056,148.894,1056,169.318z M1046.776,169.318
		c0-15.812-11.858-29.647-28.988-29.647c-17.129,0-28.988,13.177-28.988,29.647s13.177,29.647,28.988,29.647
		S1046.776,186.448,1046.776,169.318z"/>
	<path fill="#003366" d="M1065.224,129.788l54.683,57.317v-54.023h9.224v75.765l-55.342-57.317v54.023h-9.224v-75.765H1065.224z"/>
	<path fill="#003366" d="M1208.848,169.318v2.636c0,19.765-13.836,35.576-34.26,35.576c-20.423,0-36.894-17.788-36.894-37.553
		c0-21.083,16.471-38.212,37.553-38.212c11.2,0,22.399,5.271,29.647,13.835l-6.589,5.93c-5.271-7.247-13.835-11.859-23.059-11.859
		c-16.471,0-28.988,13.177-28.988,29.647c0,15.153,12.518,29.647,28.329,29.647c11.2,0,23.718-9.883,23.718-21.741H1179.2v-8.565
		h29.647V169.318z"/>
	<path fill="#003366" d="M1287.247,133.082h11.858l-32.94,32.941l32.94,40.188h-12.518l-27.67-33.601l-3.953,3.294v30.307h-9.224
		v-72.471h9.224v30.965L1287.247,133.082z"/>
	<path fill="#003366" d="M1377.506,169.318c0,21.741-17.129,38.212-38.212,38.212c-21.082,0-38.212-16.471-38.212-38.212
		c0-21.082,17.13-37.553,38.212-37.553C1360.377,131.765,1377.506,148.894,1377.506,169.318z M1368.282,169.318
		c0-15.812-11.858-29.647-28.988-29.647c-17.129,0-28.988,13.177-28.988,29.647s13.177,29.647,28.988,29.647
		S1368.282,186.448,1368.282,169.318z"/>
	<path fill="#003366" d="M1386.07,129.788l54.683,57.317v-54.023h9.224v75.765l-54.683-57.317v54.023h-9.224V129.788z"/>
	<path fill="#003366" d="M1529.694,169.318v2.636c0,19.765-13.835,35.576-34.259,35.576s-36.895-17.788-36.895-37.553
		c0-21.083,16.471-38.212,37.553-38.212c11.2,0,22.4,5.271,29.647,13.835l-6.589,5.93c-5.27-7.247-13.835-11.859-23.059-11.859
		c-16.471,0-28.988,13.177-28.988,29.647c0,15.153,12.518,29.647,28.33,29.647c11.199,0,23.718-9.883,23.718-21.741h-19.106v-8.565
		h29.647V169.318z"/>
</g>
<g>
	<g>
		<path fill="#003366" d="M1497.412,400.565v2.635c0,19.765-13.836,35.577-34.259,35.577c-20.424,0-36.895-17.789-36.895-37.554
			c0-21.082,17.13-38.211,37.553-38.211c11.2,0,22.4,5.271,29.647,13.835l-6.588,5.93c-5.271-7.247-13.836-11.859-23.06-11.859
			c-16.47,0-28.987,13.177-28.987,29.647c0,15.152,12.518,29.646,28.329,29.646c11.2,0,23.718-9.882,23.718-21.741h-19.106v-8.564
			h29.647V400.565z"/>
		<path fill="#003366" d="M1514.541,364.329v42.823c0,11.859,3.295,23.059,17.789,23.059c13.835,0,17.787-11.199,17.787-23.059
			v-42.823h9.225v46.117c0,15.813-9.883,28.33-26.354,28.33s-26.354-12.518-26.354-28.33v-46.117H1514.541L1514.541,364.329z"/>
		<path fill="#003366" d="M1583.059,419.012l-8.564,18.446h-9.883l34.918-75.765l34.918,75.765h-9.883L1616,419.012H1583.059
			L1583.059,419.012z M1599.529,381.458l-13.176,29.647h25.693L1599.529,381.458z"/>
		<path fill="#003366" d="M1640.377,361.035l54.682,57.317v-54.023h9.224v75.765l-54.683-57.317V436.8h-9.223V361.035z"/>
		<path fill="#003366" d="M1784.659,400.565v2.635c0,19.765-13.835,35.577-34.259,35.577s-36.895-17.789-36.895-37.554
			c0-21.082,17.129-38.211,37.553-38.211c11.2,0,22.4,5.271,29.647,13.835l-6.589,5.93c-5.27-7.247-13.835-11.859-23.059-11.859
			c-16.471,0-28.988,13.177-28.988,29.647c0,15.152,12.518,29.646,28.33,29.646c11.199,0,23.717-9.882,23.717-21.741h-19.105v-8.564
			h29.647V400.565z"/>
		<path fill="#003366" d="M1840,428.894v8.564h-51.389l36.895-64.564h-31.623v-8.564h46.776l-36.895,64.564H1840L1840,428.894z"/>
		<path fill="#003366" d="M1891.389,393.976v-29.646h9.223v73.129h-9.223v-34.917h-34.918v34.917h-9.224v-73.129h9.224v29.646
			H1891.389z"/>
		<path fill="#003366" d="M1985.6,401.223c0,21.741-17.129,38.212-38.211,38.212s-38.212-16.471-38.212-38.212
			c0-21.082,17.13-38.211,38.212-38.211S1985.6,380.141,1985.6,401.223z M1976.377,401.223c0-15.812-11.859-29.646-28.988-29.646
			c-17.13,0-28.988,13.177-28.988,29.646c0,16.471,13.176,29.647,28.988,29.647C1963.2,430.211,1976.377,417.694,1976.377,401.223z"
			/>
		<path fill="#003366" d="M2003.389,364.329v42.823c0,11.859,3.294,23.059,17.788,23.059c13.835,0,17.788-11.199,17.788-23.059
			v-42.823h9.224v46.117c0,15.813-9.883,28.33-26.353,28.33c-16.471,0-26.354-12.518-26.354-28.33v-46.117H2003.389
			L2003.389,364.329z"/>
	</g>
</g>
<g>
	<path fill="#003366" d="M1414.4,357.74c-3.953,7.247-6.589,13.836-8.565,18.447c-2.635,7.906-3.952,16.471-3.952,25.035
		c0,13.836,3.952,28.33,12.518,42.824h-6.589c-4.611-5.93-7.905-13.177-11.2-20.424c-2.635-7.906-4.611-15.153-4.611-22.4
		c0-9.882,2.635-20.423,7.906-30.306c2.635-5.271,5.271-9.224,7.905-12.518h6.589V357.74z"/>
	<path fill="#003366" d="M2086.4,401.223c0,9.883-2.636,20.424-7.906,30.307c-2.635,4.611-5.271,9.224-7.906,12.518H2064
		c3.953-7.247,6.588-13.177,8.564-18.447c2.636-7.906,3.953-16.471,3.953-25.035c0-13.836-3.953-28.33-12.518-42.824h6.588
		c4.612,5.93,7.906,12.519,11.2,20.424C2084.424,386.071,2086.4,393.976,2086.4,401.223z"/>
</g>
<g>
	<path fill="#003366" d="M735.812,249.035v42.823c0,11.858,3.294,23.059,17.788,23.059c13.836,0,17.789-11.2,17.789-23.059v-42.823
		h9.223v46.117c0,15.812-9.882,28.329-26.353,28.329s-26.353-12.518-26.353-28.329v-46.117H735.812z"/>
	<path fill="#003366" d="M793.788,245.741l54.683,57.317v-54.023h9.224V324.8l-54.683-57.317v54.023h-9.224V245.741z"/>
	<path fill="#003366" d="M884.047,321.506h-9.224v-72.471h9.224V321.506z"/>
	<path fill="#003366" d="M922.918,302.4l21.741-54.023h9.882L922.918,324.8l-31.624-76.424h9.883L922.918,302.4z"/>
	<path fill="#003366" d="M961.788,249.035h38.871v7.906h-30.306v20.423H1000v8.564h-28.988V313.6h30.306v8.564h-38.87v-73.129
		H961.788z"/>
	<path fill="#003366" d="M1057.977,321.506h-11.2l-21.082-30.965h-3.953v30.965h-9.224v-72.471h11.2c6.588,0,13.177,0,19.105,3.294
		c5.93,3.294,9.224,10.541,9.224,17.13c0,10.541-7.247,19.105-17.129,20.423L1057.977,321.506z M1021.741,283.294h2.636
		c9.223,0,19.105-1.977,19.105-13.177s-10.541-13.176-19.765-13.176h-2.636v26.353H1021.741z"/>
	<path fill="#003366" d="M1099.482,262.87c-2.635-4.611-5.93-6.588-11.859-6.588c-5.929,0-11.858,3.953-11.858,10.541
		c0,5.93,5.271,8.564,9.882,10.541l5.271,1.977c10.541,3.953,17.788,9.883,17.788,21.741c0,13.177-9.883,22.399-23.06,22.399
		c-11.858,0-21.082-8.564-22.399-20.423l9.224-1.977c0,7.905,6.588,13.835,13.835,13.835c7.906,0,13.177-6.588,13.177-14.494
		c0-7.905-6.588-11.199-12.518-13.835l-5.271-1.977c-8.565-3.294-15.812-8.564-15.812-18.447c0-11.858,10.541-19.105,21.082-19.105
		c7.905,0,14.494,3.953,18.447,11.2L1099.482,262.87z"/>
	<path fill="#003366" d="M1130.447,321.506h-9.224v-72.471h9.224V321.506z"/>
	<path fill="#003366" d="M1166.683,321.506h-9.224v-64.564h-17.13v-8.565h43.482v8.565h-17.129V321.506z"/>
	<path fill="#003366" d="M1187.105,249.035h10.541L1215.436,280l17.788-30.965h10.541l-23.718,40.847v31.624h-9.223v-31.624
		L1187.105,249.035z"/>
	<path fill="#003366" d="M1352.471,285.271c0,21.741-17.129,38.211-38.212,38.211c-21.082,0-38.212-16.47-38.212-38.211
		c0-21.083,17.13-37.553,38.212-37.553C1335.342,247.718,1352.471,264.188,1352.471,285.271z M1343.247,285.271
		c0-15.812-11.858-29.647-28.988-29.647s-28.988,13.177-28.988,29.647c0,16.47,13.177,29.646,28.988,29.646
		S1343.247,301.74,1343.247,285.271z"/>
	<path fill="#003366" d="M1372.235,256.942v20.423h25.035v8.564h-25.035v35.577h-9.224v-72.471h34.918v7.906H1372.235z"/>
	<path fill="#003366" d="M1475.671,262.87c-2.636-4.611-5.93-6.588-11.859-6.588c-5.929,0-11.858,3.953-11.858,10.541
		c0,5.93,5.271,8.564,9.882,10.541l5.271,1.977c10.541,3.953,17.789,9.883,17.789,21.741c0,13.177-10.541,22.399-23.06,22.399
		c-11.858,0-21.082-8.564-22.399-20.423l9.223-1.977c0,7.905,6.589,13.835,13.836,13.835c7.906,0,13.177-6.588,13.177-14.494
		c0-7.905-6.589-11.199-12.518-13.835l-5.271-1.977c-8.565-3.294-15.813-8.564-15.813-18.447c0-11.858,10.541-19.105,21.083-19.105
		c7.905,0,14.493,3.953,18.446,11.2L1475.671,262.87z"/>
	<path fill="#003366" d="M1550.776,262.87c-5.271-4.611-12.518-7.247-19.105-7.247c-16.471,0-28.988,13.836-28.988,29.647
		s12.518,29.646,28.329,29.646c7.247,0,13.836-2.635,19.105-7.247v10.541c-5.27,3.295-12.518,5.271-19.105,5.271
		c-20.424,0-37.553-16.47-37.553-37.553c0-21.74,17.129-38.211,38.871-38.211c6.588,0,12.518,1.317,18.446,4.611V262.87z"/>
	<path fill="#003366" d="M1574.494,321.506h-9.224v-72.471h9.224V321.506z"/>
	<path fill="#003366" d="M1592.941,249.035h38.87v7.906h-30.306v20.423h28.988v8.564h-28.988V313.6h30.306v8.564h-38.87V249.035z"/>
	<path fill="#003366" d="M1646.307,245.741l54.682,57.317v-54.023h9.224V324.8l-54.683-57.317v54.023h-9.223V245.741z"/>
	<path fill="#003366" d="M1777.412,262.87c-5.271-4.611-12.518-7.247-19.105-7.247c-16.471,0-28.988,13.836-28.988,29.647
		s12.518,29.646,28.329,29.646c7.247,0,13.835-2.635,19.105-7.247v10.541c-5.271,3.295-12.518,5.271-19.105,5.271
		c-20.424,0-38.212-16.47-38.212-37.553c0-21.74,17.129-38.211,38.871-38.211c6.588,0,12.518,1.317,18.446,4.611v10.541H1777.412z"
		/>
	<path fill="#003366" d="M1790.588,249.035h38.871v7.906h-30.307v20.423h28.988v8.564h-28.988V313.6h30.307v8.564h-38.871V249.035z"
		/>
</g>
<path fill="#003366" d="M1890.07,303.717l-8.564,18.447h-9.883l34.918-75.765l34.918,75.765h-9.883l-8.564-18.447H1890.07z
	 M1906.541,266.164l-13.176,29.647h25.693L1906.541,266.164z"/>
<path fill="#003366" d="M1949.365,245.741l54.682,57.317v-54.023h9.224V324.8l-54.683-57.317v54.023h-9.223V245.741z"/>
<path fill="#003366" d="M2027.105,249.035h15.153c22.399,0,40.847,11.858,40.847,36.235c0,25.035-18.447,36.894-40.847,36.894
	h-14.494v-73.129H2027.105z M2035.671,313.6h3.294c18.447,0,34.259-7.247,34.259-28.329c0-21.083-15.812-28.329-34.259-28.329
	h-3.294V313.6z"/>
</svg>
